<svg width="512" height="512" viewBox="0 0 512 512" xmlns="http://www.w3.org/2000/svg">
  <!-- Hintergrund: Navy Blau -->
  <rect width="512" height="512" fill="#1a3a5c" rx="80"/>
  
  <!-- Goldener Rahmen -->
  <rect x="40" y="40" width="432" height="432" fill="none" stroke="#d4af37" stroke-width="8" rx="40"/>
  
  <!-- Waage-Symbol (Justitia) in Gold -->
  <g fill="#d4af37">
    <!-- Waagbalken -->
    <rect x="156" y="248" width="200" height="12" rx="6"/>
    
    <!-- Mittelsäule -->
    <rect x="250" y="180" width="12" height="140" rx="6"/>
    
    <!-- Linke Waagschale -->
    <ellipse cx="186" cy="280" rx="45" ry="8" opacity="0.8"/>
    <path d="M 141 280 Q 141 260, 156 260 L 216 260 Q 231 260, 231 280" 
          fill="none" stroke="#d4af37" stroke-width="8" stroke-linecap="round"/>
    <line x1="186" y1="248" x2="186" y2="260" stroke="#d4af37" stroke-width="6"/>
    
    <!-- Rechte Waagschale -->
    <ellipse cx="326" cy="280" rx="45" ry="8" opacity="0.8"/>
    <path d="M 281 280 Q 281 260, 296 260 L 356 260 Q 371 260, 371 280" 
          fill="none" stroke="#d4af37" stroke-width="8" stroke-linecap="round"/>
    <line x1="326" y1="248" x2="326" y2="260" stroke="#d4af37" stroke-width="6"/>
    
    <!-- Basis -->
    <rect x="220" y="320" width="72" height="16" rx="8"/>
    <rect x="240" y="336" width="32" height="8" rx="4"/>
  </g>
  
  <!-- Initialen "ML" (Matthias Lange) -->
  <text x="256" y="420" font-family="Georgia, serif" font-size="64" 
        fill="#d4af37" text-anchor="middle" opacity="0.6" font-weight="bold">ML</text>
</svg>
